<svg xmlns="http://www.w3.org/2000/svg" width="23" height="20" fill="none"><path fill="#000" d="M19.51 10.98c.044-.32.077-.64.077-.98 0-.34-.033-.66-.076-.98l2.293-1.65a.477.477 0 0 0 .13-.64l-2.173-3.46c-.13-.22-.424-.3-.663-.22l-2.707 1a8.132 8.132 0 0 0-1.837-.98L14.141.42C14.11.18 13.881 0 13.61 0H9.26c-.272 0-.5.18-.533.42l-.413 2.65c-.663.25-1.271.59-1.837.98l-2.706-1a.552.552 0 0 0-.663.22L.935 6.73a.467.467 0 0 0 .13.64L3.36 9.02c-.044.32-.076.65-.076.98 0 .33.032.66.076.98l-2.294 1.65a.478.478 0 0 0-.13.64l2.174 3.46c.13.22.424.3.663.22l2.706-1c.566.4 1.174.73 1.837.98l.413 2.65c.033.24.261.42.533.42h4.348c.271 0 .5-.18.532-.42l.413-2.65a8.551 8.551 0 0 0 1.837-.98l2.707 1c.25.09.533 0 .663-.22l2.174-3.46a.478.478 0 0 0-.13-.64l-2.294-1.65Zm-8.075 2.52c-2.098 0-3.804-1.57-3.804-3.5s1.706-3.5 3.804-3.5 3.804 1.57 3.804 3.5-1.706 3.5-3.804 3.5Z"/></svg>